<?xml version="1.0" encoding="utf-8"?><!DOCTYPE svg><svg width="96" height="96" viewBox="0 0 96 96" xmlns="http://www.w3.org/2000/svg" xmlns:xlink="http://www.w3.org/1999/xlink"><svg baseProfile="full" width="32" height="32" viewBox="0 0 32 32" id="facebook"><path fill="#3b5998" d="M0 0h32v32H0z"/><path fill="#fff" d="M22 32V20h4l.8-5H22v-3.3c0-1.4.5-2.4 2.5-2.4H27V5c-.4-.1-1.9-.2-3.7-.2-3.7 0-6.3 2.3-6.3 6.4V15h-4v5h4v12h5z"/></svg><svg baseProfile="full" width="32" height="32" viewBox="0 0 32 32" id="flickr" x="32"><path fill="#e6e6e6" d="M0 0h32v32H0z"/><circle fill="#ff0084" cx="23" cy="16" r="6"/><circle fill="#0063dc" cx="9" cy="16" r="6"/></svg><svg width="32" height="32" viewBox="488.5 504.5 32 32" id="github" y="32"><path d="M504.5 504.895c-8.836 0-16 7.164-16 16 0 7.07 4.584 13.066 10.942 15.182.8.146 1.092-.348 1.092-.77 0-.381-.015-1.643-.022-2.979-4.449.967-5.39-1.887-5.39-1.887-.729-1.848-1.776-2.34-1.776-2.34-1.454-.992.11-.973.11-.973 1.606.111 2.452 1.648 2.452 1.648 1.428 2.445 3.746 1.738 4.656 1.328.146-1.031.56-1.738 1.016-2.137-3.552-.404-7.288-1.777-7.288-7.908 0-1.748.624-3.174 1.646-4.294-.163-.406-.714-2.034.158-4.236 0 0 1.342-.43 4.4 1.641a15.255 15.255 0 0 1 4.004-.538c1.359.006 2.729.184 4.006.54 3.053-2.072 4.396-1.641 4.396-1.641.875 2.204.324 3.83.16 4.234 1.025 1.12 1.645 2.546 1.645 4.294 0 6.146-3.742 7.5-7.307 7.896.576.496 1.086 1.469 1.086 2.961 0 2.139-.021 3.863-.021 4.391 0 .426.291.924 1.102.768 6.354-2.119 10.934-8.115 10.934-15.182-.001-8.834-7.165-15.998-16.001-15.998z"/></svg><svg baseProfile="full" width="32" height="32" viewBox="0 0 32 32" id="googleplus" x="32" y="32"><path fill="#ce3825" d="M0 0h32v32H0z"/><g fill="#fff"><path d="M31 8h-5V3h-2v5h-5v2h5v5h2v-5h5zM18.5 2H8.8c-1.288 0-2.667.151-4.138.452-1.487.349-2.92 1.094-4.299 2.236A12.52 12.52 0 0 0 0 5.055v11.91c1.32 1.239 3.114 1.873 5.381 1.9.488 0 1.007-.031 1.558-.097l-.296.838c-.122.287-.182.646-.182 1.076 0 .717.159 1.331.478 1.842.274.525.586 1.021.935 1.483-1.131.031-2.554.173-4.266.427A14.825 14.825 0 0 0 0 25.55v2.683c.216-.301.455-.568.719-.803a6.413 6.413 0 0 1 1.366-.881c.448-.19.795-.332 1.043-.429a20.657 20.657 0 0 1 3.081-.688c1.019-.096 1.652-.127 1.9-.096.417 0 .779.016 1.088.047 1.807 1.271 3.135 2.34 3.984 3.213.803.921 1.205 1.998 1.205 3.235 0 .057-.002.112-.004.169h2.841c.19-.667.287-1.358.287-2.074-.029-1.666-.408-3.013-1.135-4.045a16.661 16.661 0 0 0-2.69-2.783l-1.646-1.356a9.528 9.528 0 0 1-.733-.832c-.296-.332-.445-.753-.445-1.261 0-.522.145-.982.434-1.38.246-.38.513-.722.802-1.022.506-.444.983-.88 1.431-1.309a13.17 13.17 0 0 0 1.149-1.403c.737-1.047 1.12-2.442 1.149-4.187 0-.952-.107-1.784-.32-2.498a9.286 9.286 0 0 0-.891-1.855 8.793 8.793 0 0 0-1.074-1.403c-.38-.366-.723-.402-1.027-.592h2.99L18.5 2zm-6.893 12.247c-.117.651-.381 1.287-.791 1.906-.852.875-1.916 1.334-3.192 1.384a4.235 4.235 0 0 1-2.695-.931 7.53 7.53 0 0 1-1.925-2.265c-1.027-1.906-1.54-3.743-1.54-5.506-.032-1.334.32-2.542 1.055-3.623.871-1.033 1.964-1.565 3.279-1.597.994.032 1.872.326 2.637.883.748.588 1.353 1.35 1.812 2.288.978 1.955 1.467 3.894 1.467 5.816-.001.445-.036.993-.107 1.645z"/></g></svg><svg baseProfile="full" width="32" height="32" viewBox="0 0 32 32" id="linkedin" x="64"><path fill="#39c" d="M0 0h32v32H0z"/><g fill="#fff"><path d="M10 27V12H5v15h5zM18 18.651c0-.446-.021-.893.1-1.213.331-.892.633-1.688 1.9-1.688 1.658 0 2 1.242 2 3.25v8h5v-8.572c0-4.591-1.982-6.728-5-6.728-2.475 0-3.396 1.498-4 2.519V12h-5v15h5v-8.349z"/><circle cx="7.5" cy="7.5" r="2.5"/></g></svg><svg baseProfile="full" width="32" height="32" viewBox="0 0 32 32" id="pinterest" x="64" y="32"><path fill="#cb2027" d="M0 0h32v32H0z"/><path fill="#fff" d="M9 32c0-1.207 0-2.689.382-4l2.22-9.412S11 17.5 11 15.859c0-2.558 1.533-4.5 3.378-4.5 1.57 0 2.328 1.181 2.328 2.591 0 1.579-1.007 3.94-1.523 6.122-.433 1.834.914 3.324 2.722 3.324 3.272 0 5.5-4.197 5.474-9.172 0-3.782-2.55-6.612-7.183-6.612-5.232 0-8.5 3.903-8.5 8.262 0 1.503.442 2.564 1.137 3.388.326.408.281.558.167.992-.084.314-.187 1.082-.265 1.383-.115.439-.468.523-.863.363-2.411-.986-3.536-3.555-3.536-6.523 0-4.901 4.137-10.78 12.336-10.78 6.585 0 10.923 4.768 10.923 9.886 0 6.769-3.765 11.824-9.313 11.824-1.857 0-3.612-1-4.212-2.148 0 0-1 4-1.215 4.742-.366 1.33-.662 1.965-1.317 3H9z"/></svg><svg baseProfile="full" width="32" height="32" viewBox="0 0 32 32" id="twitter" y="64"><path fill="#00aced" d="M0 0h32v32H0z"/><path fill="#fff" d="M26.666 9.384a8.748 8.748 0 0 1-2.514.689 4.39 4.39 0 0 0 1.925-2.422c-.846.5-1.782.866-2.779 1a4.369 4.369 0 0 0-3.194-1.382 4.376 4.376 0 0 0-4.377 4.376c0 .343 0 .677.113 1a12.342 12.342 0 0 1-9-4.573 4.361 4.361 0 0 0-.592 2.2c0 1.519.772 2.858 1.947 3.643-.717 0-1.392-.22-1.982-.547 0 2.12 1.5 3.889 3.511 4.292-.367.1-.754.153-1.153.153h-.823c.557 1.739 2.173 3 4 3a8.775 8.775 0 0 1-5.436 1.874c-.354 0-.702 0-1-.062a12.394 12.394 0 0 0 6.709 1.967c8.051 0 12.454-6.669 12.454-12.453v-.566c.863-.541 1.605-1.311 2.191-2.189z"/></svg><svg baseProfile="full" width="32" height="32" viewBox="0 0 32 32" id="youtube" x="32" y="64"><linearGradient id="ha" gradientUnits="userSpaceOnUse" x1="-10.744" y1="-31.324" x2="-10.744" y2="-46.324" gradientTransform="translate(26.744 61.324)"><stop offset="0" stop-color="#6d0d13"/><stop offset=".6" stop-color="#ab2624"/><stop offset="1" stop-color="#cd332d"/></linearGradient><path fill="#ebebeb" d="M0 0h32v32H0z"/><g fill="#242424"><path d="M8 2h1.61l1.037 4.397h.101L11.736 2h1.624L11.5 8.436V13H9.901V8.641L8 2zM13.248 6.986c0-.605.19-1.087.573-1.447.382-.359.896-.539 1.54-.539.587 0 1.069.189 1.443.568.375.379.563.866.563 1.462v4.041c0 .67-.184 1.195-.551 1.576-.368.381-.874.571-1.519.571-.621 0-1.118-.196-1.49-.59-.373-.393-.559-.922-.559-1.587V6.986zm1.461 4.202c0 .215.05.382.151.499s.246.176.433.176c.192 0 .346-.06.459-.18.112-.12.17-.285.17-.496v-4.26a.537.537 0 0 0-.174-.414.651.651 0 0 0-.455-.158.578.578 0 0 0-.421.158.551.551 0 0 0-.162.414v4.261zM22.624 5v8h-1.421v-.863a3.137 3.137 0 0 1-.816.727c-.283.166-.558.249-.824.249-.327 0-.575-.116-.741-.35-.166-.232-.249-.582-.249-1.048V5h1.419v6.174c0 .185.029.319.089.403.06.083.155.125.289.125.104 0 .237-.056.396-.165.159-.11.307-.25.438-.421V5h1.42z"/></g><path fill="url(#ha)" d="M16 30c2.874.002 5.763 0 8.614-.301 1.203-.125 2.204-.97 2.484-2.114.401-1.629.401-3.409.401-5.086 0-1.679-.005-3.456-.405-5.087-.281-1.145-1.281-1.988-2.484-2.113-2.853-.299-5.736-.3-8.61-.299-2.875-.001-5.757 0-8.61.299-1.204.125-2.204.969-2.485 2.113-.401 1.631-.405 3.408-.405 5.087 0 1.677 0 3.457.401 5.086.281 1.145 1.281 1.989 2.485 2.114 2.852.301 5.74.303 8.614.301z"/><g fill="#fff"><path d="M11.318 17H6.705v1.597H8.26V28h1.503v-9.403h1.555zM13.774 26.063c-.125.175-.263.32-.413.433s-.274.169-.372.169c-.125 0-.216-.043-.272-.128-.056-.084-.084-.223-.084-.414V20H11.3v6.681c0 .479.078.837.234 1.076.157.239.389.358.698.358.25 0 .509-.086.774-.256.266-.171.522-.42.768-.747V28h1.335v-8h-1.335v6.063zM18.945 19.861c-.207 0-.411.065-.613.193a2.118 2.118 0 0 0-.572.559V17h-1.349v11h1.349v-.619c.175.246.364.427.568.544.206.118.438.176.699.176.396 0 .697-.15.905-.454.21-.305.314-.74.314-1.312v-4.459c0-.656-.111-1.156-.335-1.498-.221-.344-.543-.517-.966-.517zm-.071 6.256c0 .255-.039.44-.116.553-.078.113-.197.169-.36.169a.645.645 0 0 1-.323-.087 1.197 1.197 0 0 1-.314-.282v-5.007c.09-.11.181-.192.274-.245a.581.581 0 0 1 .282-.08c.182 0 .319.072.416.213.093.14.142.346.142.616v4.15zM25.179 24.17v-2.045c0-.763-.162-1.349-.489-1.755-.329-.405-.798-.609-1.409-.609-.597 0-1.083.219-1.46.658-.378.439-.566 1.008-.566 1.706v3.605c0 .774.171 1.382.515 1.824.344.441.813.662 1.412.662.664 0 1.163-.208 1.498-.626.334-.416.5-1.037.5-1.86V25h-1.372v.686c0 .473-.044.78-.132.916-.088.139-.242.208-.465.208-.212 0-.363-.082-.45-.245-.088-.164-.132-.456-.132-.879V24.17h2.55zm-2.551-2.061c0-.336.046-.577.138-.723.093-.146.245-.219.458-.219.203 0 .352.072.443.219.093.146.14.387.14.723V23h-1.179v-.891z"/></g></svg></svg>